<mxfile host="Electron" modified="2023-10-28T10:33:21.393Z" agent="Mozilla/5.0 (Windows NT 10.0; Win64; x64) AppleWebKit/537.36 (KHTML, like Gecko) draw.io/22.0.3 Chrome/114.0.5735.289 Electron/25.8.4 Safari/537.36" etag="Iu5L6x4BFBB_fiD_YbPi" version="22.0.3" type="device">
  <diagram name="Page-1" id="dzlGwOqnFct8hNl-MjGZ">
    <mxGraphModel dx="936" dy="731" grid="1" gridSize="10" guides="1" tooltips="1" connect="1" arrows="1" fold="1" page="1" pageScale="1" pageWidth="850" pageHeight="1100" math="0" shadow="0">
      <root>
        <mxCell id="0" />
        <mxCell id="1" parent="0" />
        <mxCell id="LIUh5S7-7C21HLJim_Fs-1" value="" style="ellipse;whiteSpace=wrap;html=1;" vertex="1" parent="1">
          <mxGeometry x="360" y="320" width="120" height="80" as="geometry" />
        </mxCell>
        <mxCell id="LIUh5S7-7C21HLJim_Fs-5" value="" style="edgeStyle=orthogonalEdgeStyle;rounded=0;orthogonalLoop=1;jettySize=auto;html=1;" edge="1" parent="1" source="LIUh5S7-7C21HLJim_Fs-2" target="LIUh5S7-7C21HLJim_Fs-4">
          <mxGeometry relative="1" as="geometry" />
        </mxCell>
        <mxCell id="LIUh5S7-7C21HLJim_Fs-2" value="start" style="ellipse;whiteSpace=wrap;html=1;" vertex="1" parent="1">
          <mxGeometry x="360" y="320" width="120" height="80" as="geometry" />
        </mxCell>
        <mxCell id="LIUh5S7-7C21HLJim_Fs-34" style="edgeStyle=orthogonalEdgeStyle;rounded=0;orthogonalLoop=1;jettySize=auto;html=1;exitX=0.5;exitY=0;exitDx=0;exitDy=0;" edge="1" parent="1" source="LIUh5S7-7C21HLJim_Fs-3">
          <mxGeometry relative="1" as="geometry">
            <mxPoint x="700" y="270" as="targetPoint" />
          </mxGeometry>
        </mxCell>
        <mxCell id="LIUh5S7-7C21HLJim_Fs-3" value="finish" style="ellipse;whiteSpace=wrap;html=1;" vertex="1" parent="1">
          <mxGeometry x="710" y="230" width="120" height="80" as="geometry" />
        </mxCell>
        <mxCell id="LIUh5S7-7C21HLJim_Fs-19" value="" style="edgeStyle=orthogonalEdgeStyle;rounded=0;orthogonalLoop=1;jettySize=auto;html=1;" edge="1" parent="1" source="LIUh5S7-7C21HLJim_Fs-4" target="LIUh5S7-7C21HLJim_Fs-17">
          <mxGeometry relative="1" as="geometry" />
        </mxCell>
        <mxCell id="LIUh5S7-7C21HLJim_Fs-4" value="declaring array &#39;an&#39; of size 5" style="rounded=0;whiteSpace=wrap;html=1;" vertex="1" parent="1">
          <mxGeometry x="360" y="420" width="120" height="60" as="geometry" />
        </mxCell>
        <mxCell id="LIUh5S7-7C21HLJim_Fs-9" value="entering cobe lengths into &quot;an&quot; array" style="shape=parallelogram;perimeter=parallelogramPerimeter;whiteSpace=wrap;html=1;fixedSize=1;" vertex="1" parent="1">
          <mxGeometry x="50" y="560" width="132" height="60" as="geometry" />
        </mxCell>
        <mxCell id="LIUh5S7-7C21HLJim_Fs-10" style="edgeStyle=orthogonalEdgeStyle;rounded=0;orthogonalLoop=1;jettySize=auto;html=1;exitX=0.5;exitY=1;exitDx=0;exitDy=0;" edge="1" parent="1" source="LIUh5S7-7C21HLJim_Fs-9" target="LIUh5S7-7C21HLJim_Fs-9">
          <mxGeometry relative="1" as="geometry" />
        </mxCell>
        <mxCell id="LIUh5S7-7C21HLJim_Fs-12" value="" style="rounded=0;whiteSpace=wrap;html=1;" vertex="1" parent="1">
          <mxGeometry x="360" y="510" width="120" height="60" as="geometry" />
        </mxCell>
        <mxCell id="LIUh5S7-7C21HLJim_Fs-20" value="" style="edgeStyle=orthogonalEdgeStyle;rounded=0;orthogonalLoop=1;jettySize=auto;html=1;" edge="1" parent="1" source="LIUh5S7-7C21HLJim_Fs-13" target="LIUh5S7-7C21HLJim_Fs-18">
          <mxGeometry relative="1" as="geometry" />
        </mxCell>
        <mxCell id="LIUh5S7-7C21HLJim_Fs-13" value="" style="rounded=0;whiteSpace=wrap;html=1;" vertex="1" parent="1">
          <mxGeometry x="265" y="500" width="320" height="160" as="geometry" />
        </mxCell>
        <mxCell id="LIUh5S7-7C21HLJim_Fs-14" value="output &quot;enter the of i-th cube&quot;" style="shape=parallelogram;perimeter=parallelogramPerimeter;whiteSpace=wrap;html=1;fixedSize=1;" vertex="1" parent="1">
          <mxGeometry x="265" y="545" width="154" height="70" as="geometry" />
        </mxCell>
        <mxCell id="LIUh5S7-7C21HLJim_Fs-16" value="input: an[i]" style="shape=parallelogram;perimeter=parallelogramPerimeter;whiteSpace=wrap;html=1;fixedSize=1;" vertex="1" parent="1">
          <mxGeometry x="431" y="545" width="154" height="70" as="geometry" />
        </mxCell>
        <mxCell id="LIUh5S7-7C21HLJim_Fs-17" value="for each element in &quot;an&quot;" style="text;html=1;strokeColor=none;fillColor=none;align=center;verticalAlign=middle;whiteSpace=wrap;rounded=0;" vertex="1" parent="1">
          <mxGeometry x="358" y="510" width="135" height="30" as="geometry" />
        </mxCell>
        <mxCell id="LIUh5S7-7C21HLJim_Fs-56" value="" style="edgeStyle=orthogonalEdgeStyle;rounded=0;orthogonalLoop=1;jettySize=auto;html=1;" edge="1" parent="1" source="LIUh5S7-7C21HLJim_Fs-18" target="LIUh5S7-7C21HLJim_Fs-24">
          <mxGeometry relative="1" as="geometry" />
        </mxCell>
        <mxCell id="LIUh5S7-7C21HLJim_Fs-18" value="initilize &#39;prevCubeV&#39; to 0" style="rounded=0;whiteSpace=wrap;html=1;" vertex="1" parent="1">
          <mxGeometry x="355" y="690" width="140" height="70" as="geometry" />
        </mxCell>
        <mxCell id="LIUh5S7-7C21HLJim_Fs-21" value="" style="rounded=0;whiteSpace=wrap;html=1;" vertex="1" parent="1">
          <mxGeometry x="48" y="810" width="754.88" height="550" as="geometry" />
        </mxCell>
        <mxCell id="LIUh5S7-7C21HLJim_Fs-22" value="for each element in &quot;an&quot;" style="text;html=1;strokeColor=none;fillColor=none;align=center;verticalAlign=middle;whiteSpace=wrap;rounded=0;" vertex="1" parent="1">
          <mxGeometry x="368" y="800" width="135" height="30" as="geometry" />
        </mxCell>
        <mxCell id="LIUh5S7-7C21HLJim_Fs-25" value="" style="edgeStyle=orthogonalEdgeStyle;rounded=0;orthogonalLoop=1;jettySize=auto;html=1;" edge="1" parent="1" source="LIUh5S7-7C21HLJim_Fs-23" target="LIUh5S7-7C21HLJim_Fs-24">
          <mxGeometry relative="1" as="geometry" />
        </mxCell>
        <mxCell id="LIUh5S7-7C21HLJim_Fs-23" value="calculate cubeV" style="rounded=0;whiteSpace=wrap;html=1;" vertex="1" parent="1">
          <mxGeometry x="160" y="830" width="120" height="60" as="geometry" />
        </mxCell>
        <mxCell id="LIUh5S7-7C21HLJim_Fs-29" value="" style="edgeStyle=orthogonalEdgeStyle;rounded=0;orthogonalLoop=1;jettySize=auto;html=1;" edge="1" parent="1" source="LIUh5S7-7C21HLJim_Fs-24" target="LIUh5S7-7C21HLJim_Fs-28">
          <mxGeometry relative="1" as="geometry" />
        </mxCell>
        <mxCell id="LIUh5S7-7C21HLJim_Fs-24" value="output&amp;nbsp; i-th cube: cubeV&amp;nbsp;" style="shape=parallelogram;perimeter=parallelogramPerimeter;whiteSpace=wrap;html=1;fixedSize=1;" vertex="1" parent="1">
          <mxGeometry x="365" y="830" width="120" height="60" as="geometry" />
        </mxCell>
        <mxCell id="LIUh5S7-7C21HLJim_Fs-31" value="true" style="edgeStyle=orthogonalEdgeStyle;rounded=0;orthogonalLoop=1;jettySize=auto;html=1;" edge="1" parent="1" source="LIUh5S7-7C21HLJim_Fs-28" target="LIUh5S7-7C21HLJim_Fs-30">
          <mxGeometry relative="1" as="geometry" />
        </mxCell>
        <mxCell id="LIUh5S7-7C21HLJim_Fs-33" value="false" style="edgeStyle=orthogonalEdgeStyle;rounded=0;orthogonalLoop=1;jettySize=auto;html=1;" edge="1" parent="1" source="LIUh5S7-7C21HLJim_Fs-28" target="LIUh5S7-7C21HLJim_Fs-32">
          <mxGeometry relative="1" as="geometry" />
        </mxCell>
        <mxCell id="LIUh5S7-7C21HLJim_Fs-28" value="if i == 0" style="rhombus;whiteSpace=wrap;html=1;" vertex="1" parent="1">
          <mxGeometry x="385" y="920" width="80" height="80" as="geometry" />
        </mxCell>
        <mxCell id="LIUh5S7-7C21HLJim_Fs-30" value="set prevCube = CubeV" style="whiteSpace=wrap;html=1;" vertex="1" parent="1">
          <mxGeometry x="525" y="930" width="120" height="60" as="geometry" />
        </mxCell>
        <mxCell id="LIUh5S7-7C21HLJim_Fs-42" value="" style="edgeStyle=orthogonalEdgeStyle;rounded=0;orthogonalLoop=1;jettySize=auto;html=1;" edge="1" parent="1" source="LIUh5S7-7C21HLJim_Fs-32">
          <mxGeometry relative="1" as="geometry">
            <mxPoint x="512.9824561403509" y="1120.0526315789475" as="targetPoint" />
          </mxGeometry>
        </mxCell>
        <mxCell id="LIUh5S7-7C21HLJim_Fs-73" value="Text" style="edgeLabel;html=1;align=center;verticalAlign=middle;resizable=0;points=[];" vertex="1" connectable="0" parent="LIUh5S7-7C21HLJim_Fs-42">
          <mxGeometry x="-0.4755" y="1" relative="1" as="geometry">
            <mxPoint as="offset" />
          </mxGeometry>
        </mxCell>
        <mxCell id="LIUh5S7-7C21HLJim_Fs-76" value="true" style="edgeLabel;html=1;align=center;verticalAlign=middle;resizable=0;points=[];" vertex="1" connectable="0" parent="LIUh5S7-7C21HLJim_Fs-42">
          <mxGeometry x="-0.4755" y="3" relative="1" as="geometry">
            <mxPoint as="offset" />
          </mxGeometry>
        </mxCell>
        <mxCell id="LIUh5S7-7C21HLJim_Fs-53" value="" style="edgeStyle=orthogonalEdgeStyle;rounded=0;orthogonalLoop=1;jettySize=auto;html=1;" edge="1" parent="1" source="LIUh5S7-7C21HLJim_Fs-32" target="LIUh5S7-7C21HLJim_Fs-52">
          <mxGeometry relative="1" as="geometry" />
        </mxCell>
        <mxCell id="LIUh5S7-7C21HLJim_Fs-77" value="false" style="edgeLabel;html=1;align=center;verticalAlign=middle;resizable=0;points=[];" vertex="1" connectable="0" parent="LIUh5S7-7C21HLJim_Fs-53">
          <mxGeometry x="-0.0083" relative="1" as="geometry">
            <mxPoint as="offset" />
          </mxGeometry>
        </mxCell>
        <mxCell id="LIUh5S7-7C21HLJim_Fs-32" value="if ab[i] &amp;lt; 0" style="rhombus;whiteSpace=wrap;html=1;" vertex="1" parent="1">
          <mxGeometry x="385" y="1080" width="80" height="80" as="geometry" />
        </mxCell>
        <mxCell id="LIUh5S7-7C21HLJim_Fs-46" value="" style="edgeStyle=orthogonalEdgeStyle;rounded=0;orthogonalLoop=1;jettySize=auto;html=1;" edge="1" parent="1" source="LIUh5S7-7C21HLJim_Fs-44" target="LIUh5S7-7C21HLJim_Fs-45">
          <mxGeometry relative="1" as="geometry" />
        </mxCell>
        <mxCell id="LIUh5S7-7C21HLJim_Fs-44" value="output &quot;ERROR&quot;" style="rounded=0;whiteSpace=wrap;html=1;" vertex="1" parent="1">
          <mxGeometry x="510" y="1090" width="120" height="60" as="geometry" />
        </mxCell>
        <mxCell id="LIUh5S7-7C21HLJim_Fs-81" value="" style="edgeStyle=orthogonalEdgeStyle;rounded=0;orthogonalLoop=1;jettySize=auto;html=1;" edge="1" parent="1" source="LIUh5S7-7C21HLJim_Fs-45" target="LIUh5S7-7C21HLJim_Fs-79">
          <mxGeometry relative="1" as="geometry" />
        </mxCell>
        <mxCell id="LIUh5S7-7C21HLJim_Fs-45" value="break the loop" style="whiteSpace=wrap;html=1;rounded=0;" vertex="1" parent="1">
          <mxGeometry x="660" y="1090" width="120" height="60" as="geometry" />
        </mxCell>
        <mxCell id="LIUh5S7-7C21HLJim_Fs-55" value="" style="edgeStyle=orthogonalEdgeStyle;rounded=0;orthogonalLoop=1;jettySize=auto;html=1;" edge="1" parent="1" source="LIUh5S7-7C21HLJim_Fs-52" target="LIUh5S7-7C21HLJim_Fs-54">
          <mxGeometry relative="1" as="geometry" />
        </mxCell>
        <mxCell id="LIUh5S7-7C21HLJim_Fs-78" value="true" style="edgeLabel;html=1;align=center;verticalAlign=middle;resizable=0;points=[];" vertex="1" connectable="0" parent="LIUh5S7-7C21HLJim_Fs-55">
          <mxGeometry x="0.1644" y="-2" relative="1" as="geometry">
            <mxPoint as="offset" />
          </mxGeometry>
        </mxCell>
        <mxCell id="LIUh5S7-7C21HLJim_Fs-61" value="false" style="edgeStyle=orthogonalEdgeStyle;rounded=0;orthogonalLoop=1;jettySize=auto;html=1;" edge="1" parent="1" source="LIUh5S7-7C21HLJim_Fs-52" target="LIUh5S7-7C21HLJim_Fs-60">
          <mxGeometry relative="1" as="geometry" />
        </mxCell>
        <mxCell id="LIUh5S7-7C21HLJim_Fs-52" value="if prevCubeV&amp;lt;cubeV" style="rhombus;whiteSpace=wrap;html=1;" vertex="1" parent="1">
          <mxGeometry x="205" y="1060" width="120" height="120" as="geometry" />
        </mxCell>
        <mxCell id="LIUh5S7-7C21HLJim_Fs-59" value="" style="edgeStyle=orthogonalEdgeStyle;rounded=0;orthogonalLoop=1;jettySize=auto;html=1;" edge="1" parent="1" source="LIUh5S7-7C21HLJim_Fs-54" target="LIUh5S7-7C21HLJim_Fs-58">
          <mxGeometry relative="1" as="geometry" />
        </mxCell>
        <mxCell id="LIUh5S7-7C21HLJim_Fs-54" value="&quot;LOSS&quot;" style="shape=parallelogram;perimeter=parallelogramPerimeter;whiteSpace=wrap;html=1;fixedSize=1;" vertex="1" parent="1">
          <mxGeometry x="50" y="1090" width="120" height="60" as="geometry" />
        </mxCell>
        <mxCell id="LIUh5S7-7C21HLJim_Fs-58" value="break the loop" style="whiteSpace=wrap;html=1;" vertex="1" parent="1">
          <mxGeometry x="50" y="1230" width="120" height="60" as="geometry" />
        </mxCell>
        <mxCell id="LIUh5S7-7C21HLJim_Fs-63" value="true" style="edgeStyle=orthogonalEdgeStyle;rounded=0;orthogonalLoop=1;jettySize=auto;html=1;" edge="1" parent="1" source="LIUh5S7-7C21HLJim_Fs-60" target="LIUh5S7-7C21HLJim_Fs-62">
          <mxGeometry relative="1" as="geometry" />
        </mxCell>
        <mxCell id="LIUh5S7-7C21HLJim_Fs-60" value="if i == last index of &#39;an&#39;" style="rhombus;whiteSpace=wrap;html=1;" vertex="1" parent="1">
          <mxGeometry x="225" y="1220" width="80" height="80" as="geometry" />
        </mxCell>
        <mxCell id="LIUh5S7-7C21HLJim_Fs-67" value="" style="edgeStyle=orthogonalEdgeStyle;rounded=0;orthogonalLoop=1;jettySize=auto;html=1;" edge="1" parent="1" source="LIUh5S7-7C21HLJim_Fs-62" target="LIUh5S7-7C21HLJim_Fs-66">
          <mxGeometry relative="1" as="geometry" />
        </mxCell>
        <mxCell id="LIUh5S7-7C21HLJim_Fs-82" style="edgeStyle=orthogonalEdgeStyle;rounded=0;orthogonalLoop=1;jettySize=auto;html=1;" edge="1" parent="1" source="LIUh5S7-7C21HLJim_Fs-62" target="LIUh5S7-7C21HLJim_Fs-79">
          <mxGeometry relative="1" as="geometry" />
        </mxCell>
        <mxCell id="LIUh5S7-7C21HLJim_Fs-62" value="Output &quot;WIN&quot;" style="shape=parallelogram;perimeter=parallelogramPerimeter;whiteSpace=wrap;html=1;fixedSize=1;" vertex="1" parent="1">
          <mxGeometry x="365" y="1230" width="120" height="60" as="geometry" />
        </mxCell>
        <mxCell id="LIUh5S7-7C21HLJim_Fs-66" value="" style="whiteSpace=wrap;html=1;" vertex="1" parent="1">
          <mxGeometry x="520" y="1280" width="120" height="60" as="geometry" />
        </mxCell>
        <mxCell id="LIUh5S7-7C21HLJim_Fs-79" value="finish" style="ellipse;whiteSpace=wrap;html=1;" vertex="1" parent="1">
          <mxGeometry x="600" y="1180" width="120" height="80" as="geometry" />
        </mxCell>
      </root>
    </mxGraphModel>
  </diagram>
</mxfile>
